999
"DXF R12 Output" (www.mydxf.blogspot.com)
 0 
SECTION
 2 
HEADER
 9 
$ACADVER
 1 
AC1009
 9 
$EXTMIN
 10 
 0 
 20 
 0 
 9 
$EXTMAX
 10 
 8.5 
 20 
 11 
 0 
ENDSEC
 0 
SECTION
 2 
ENTITIES
0
POLYLINE
8
Layer 1
62
7
70
0
10
0.000000
20
0.000000
66
1
0
VERTEX
8
Layer 1
10
79.678439
20
242.071561
70
0
0
VERTEX
8
Layer 1
10
80.230482
20
220.265799
70
0
0
VERTEX
8
Layer 1
10
112.157060
20
200.024164
70
0
0
VERTEX
8
Layer 1
10
80.782527
20
187.879180
70
0
0
VERTEX
8
Layer 1
10
80.230482
20
161.289030
70
0
0
VERTEX
8
Layer 1
10
110.500930
20
142.059480
70
0
0
VERTEX
8
Layer 1
10
82.990705
20
132.582710
70
0
0
VERTEX
8
Layer 1
10
82.990705
20
103.416360
70
0
0
VERTEX
8
Layer 1
10
104.888480
20
89.247210
70
0
0
VERTEX
8
Layer 1
10
105.440524
20
88.722481
70
0
0
VERTEX
8
Layer 1
10
105.936501
20
88.097299
70
0
0
VERTEX
8
Layer 1
10
106.406601
20
87.257553
70
0
0
VERTEX
8
Layer 1
10
106.721438
20
86.223728
70
0
0
VERTEX
8
Layer 1
10
106.751628
20
85.016310
70
0
0
VERTEX
8
Layer 1
10
106.367783
20
83.655786
70
0
0
VERTEX
8
Layer 1
10
105.440520
20
82.162640
70
0
0
VERTEX
8
Layer 1
10
103.619778
20
80.274153
70
0
0
VERTEX
8
Layer 1
10
100.880400
20
77.871359
70
0
0
VERTEX
8
Layer 1
10
94.077600
20
72.467361
70
0
0
VERTEX
8
Layer 1
10
85.198883
20
65.877330
70
0
0
VERTEX
8
Layer 1
10
85.382898
20
53.180300
70
0
0
VERTEX
8
Layer 1
10
101.392190
20
53.272300
70
0
0
VERTEX
8
Layer 1
10
101.576210
20
60.356870
70
0
0
VERTEX
8
Layer 1
10
125.866170
20
78.850370
70
0
0
VERTEX
8
Layer 1
10
125.958170
20
91.823410
70
0
0
VERTEX
8
Layer 1
10
101.116160
20
112.065050
70
0
0
VERTEX
8
Layer 1
10
128.534380
20
128.810400
70
0
0
VERTEX
8
Layer 1
10
128.074340
20
149.420070
70
0
0
VERTEX
8
Layer 1
10
105.072480
20
164.049250
70
0
0
VERTEX
8
Layer 1
10
105.348500
20
172.329920
70
0
0
VERTEX
8
Layer 1
10
105.544016
20
172.561376
70
0
0
VERTEX
8
Layer 1
10
106.291578
20
173.077480
70
0
0
VERTEX
8
Layer 1
10
107.832703
20
173.610834
70
0
0
VERTEX
8
Layer 1
10
110.408910
20
173.894040
70
0
0
VERTEX
8
Layer 1
10
128.350360
20
174.170070
70
0
0
VERTEX
8
Layer 1
10
128.624945
20
174.384275
70
0
0
VERTEX
8
Layer 1
10
129.235931
20
175.124646
70
0
0
VERTEX
8
Layer 1
10
129.864170
20
176.537822
70
0
0
VERTEX
8
Layer 1
10
130.085024
20
177.542536
70
0
0
VERTEX
8
Layer 1
10
130.190510
20
178.770440
70
0
0
VERTEX
8
Layer 1
10
130.926570
20
203.980474
70
0
0
VERTEX
8
Layer 1
10
113.261150
20
216.493495
70
0
0
VERTEX
8
Layer 1
10
112.640100
20
217.174925
70
0
0
VERTEX
8
Layer 1
10
112.116090
20
217.978193
70
0
0
VERTEX
8
Layer 1
10
111.674024
20
219.046702
70
0
0
VERTEX
8
Layer 1
10
111.482103
20
220.348104
70
0
0
VERTEX
8
Layer 1
10
111.708528
20
221.850053
70
0
0
VERTEX
8
Layer 1
10
112.521500
20
223.520204
70
0
0
VERTEX
8
Layer 1
10
114.089220
20
225.326209
70
0
0
VERTEX
8
Layer 1
10
124.233036
20
235.055995
70
0
0
VERTEX
8
Layer 1
10
130.374530
20
241.059480
70
0
0
VERTEX
8
Layer 1
10
129.486084
20
241.496515
70
0
0
VERTEX
8
Layer 1
10
127.131271
20
242.485595
70
0
0
VERTEX
8
Layer 1
10
123.775878
20
243.543681
70
0
0
VERTEX
8
Layer 1
10
121.868521
20
243.947651
70
0
0
VERTEX
8
Layer 1
10
119.885690
20
244.187733
70
0
0
VERTEX
8
Layer 1
10
113.768629
20
244.399063
70
0
0
VERTEX
8
Layer 1
10
104.968979
20
244.429252
70
0
0
VERTEX
8
Layer 1
10
95.807052
20
244.200671
70
0
0
VERTEX
8
Layer 1
10
91.815332
20
243.965082
70
0
0
VERTEX
8
Layer 1
10
88.603158
20
243.635688
70
0
0
VERTEX
8
Layer 1
10
81.415079
20
242.474094
70
0
0
VERTEX
8
Layer 1
10
79.678439
20
242.071561
70
0
0
VERTEX
8
Layer 1
10
79.678439
20
242.071561
70
0
0
SEQEND
8
Layer 1
 0 
ENDSEC
 0 
EOF